PathFileType	4	(X/Y/Z)	C:/Users/beibeiliu/ov580/test_trc\sequence.8_training_dense_left.trc
DataRate	CameraRate	NumFrames	NumMarkers	Units	OrigDataRate	OrigDataStartFrame	OrigNumFrames
120	120	21	19	mm	120	47	375
Frame#	Time	ThumbCMC			ThumbMCP			ThumbIP			ThumbTip			IndexMCP			IndexPIP			IndexTip			MiddleMCP			MiddlePIP			MiddleTip			RingMCP			RingPIP			RingTip			PinkyMCP			PinkyPIP			PinkyTip			BackHand1			BackHand2			BackHand3	
		X0	Y0	Z0	X1	Y1	Z1	X2	Y2	Z2	X3	Y3	Z3	X4	Y4	Z4	X5	Y5	Z5	X6	Y6	Z6	X7	Y7	Z7	X8	Y8	Z8	X9	Y9	Z9	X10	Y10	Z10	X11	Y11	Z11	X12	Y12	Z12	X13	Y13	Z13	X14	Y14	Z14	X15	Y15	Z15	X16	Y16	Z16	X17	Y17	Z17	X18	Y18	Z18	
46	0.383333	-208.454	28.5944	5.35103	-197.148	33.5554	-14.2061	-195.86	40.4272	-33.3355	-191.942	49.2353	-49.8301	-219.937	7.56283	-55.6586	-202.918	-14.8815	-54.228	-202.454	-8.61462	-23.187	-228.756	-8.89716	-53.5576	-207.252	-28.5843	-41.5361	-209.477	-14.9257	-14.7843	-241.394	-24.8738	-41.0248	-215.859	-32.4833	-31.5805	-220.146	-18.6193	-6.20143	-246.353	-33.7517	-31.7081	-226.462	-37.9903	-24.4538	-225.8	-20.4278	-5.49518	-256.79	8.09718	-5.58591	-251.783	12.596	23.6024	-235.282	28.5451	2.54807	
47	0.391667	-206.004	28.2336	5.26697	-199.943	29.5496	-16.8652	-192.752	42.5769	-37.2418	-185.865	49.1623	-47.7704	-219.812	5.97698	-58.4062	-203.252	-12.4796	-55.5879	-199.418	-5.88673	-24.3392	-233.033	-6.95956	-52.199	-212.685	-29.8191	-43.8698	-209.646	-13.0461	-15.6906	-239.494	-24.6959	-42.9889	-218.252	-31.3813	-32.027	-220.978	-15.9584	-6.47914	-249.399	-28.5046	-30.9233	-227.906	-36.2818	-21.6712	-228.325	-16.4969	-4.43858	-256.454	8.0868	-2.89793	-251.608	16.8191	19.4289	-235.762	30.938	1.80973	
48	0.4	-205.872	27.5264	6.92955	-198.479	28.6111	-17.1267	-190.613	41.3916	-37.6928	-187.551	46.9413	-52.6063	-222.049	8.94119	-58.7409	-206.592	-14.4313	-55.6007	-201.854	-7.6587	-25.9732	-235.501	-6.80711	-52.4252	-211.663	-26.272	-45.5023	-209.782	-9.7669	-17.5376	-241.658	-17.4066	-42.4319	-221.319	-32.9089	-29.5997	-221.521	-10.4444	-9.67139	-250.47	-30.3797	-31.8287	-227.957	-33.2683	-21.6599	-226.814	-17.0318	-6.08642	-258.933	10.7752	-3.16921	-252.247	16.5017	18.3826	-238.147	29.8666	3.24723	
49	0.408333	-203.248	29.4916	1.13159	-198.025	28.3701	-18.4877	-191.272	37.9507	-38.3625	-183.343	46.7288	-52.5539	-222.992	8.20349	-60.5652	-206.585	-12.956	-55.399	-201.432	-5.83599	-28.7459	-235.725	-5.02843	-54.9837	-217.155	-26.3907	-46.6694	-215.213	-11.2591	-15.6971	-244.992	-18.1094	-44.015	-222.122	-29.3746	-31.5542	-222.401	-14.0269	-8.32383	-254.982	-20.4157	-31.0425	-232.04	-31.0077	-26.1556	-227.755	-15.3253	-3.20972	-258.876	15.718	-6.71864	-248.319	20.338	19.072	-235.122	32.8838	0.507012	
50	0.416667	-201.469	27.1945	4.30023	-195.744	28.2765	-21.0488	-189.726	34.8722	-39.4494	-178.816	43.6305	-51.871	-222.164	13.5738	-58.6713	-211.666	-14.9351	-56.2581	-202.066	-7.67986	-30.0999	-237.6	-3.00697	-54.4929	-220.086	-26.2414	-47.4108	-215.807	-14.4338	-18.5266	-247.356	-12.8343	-44.2785	-226.411	-29.826	-30.9471	-224.608	-10.585	-8.88369	-255.349	-21.9894	-32.2841	-236.624	-32.9284	-24.2547	-227.452	-14.7386	-7.47994	-257.594	19.2151	-5.25823	-251.501	23.5534	18.5823	-234.419	35.2403	-0.594217	
51	0.425	-200.04	26.0272	2.50783	-190.908	26.4661	-21.3237	-188.762	31.3997	-42.0594	-177.63	41.0257	-57.3377	-224.311	11.2471	-60.9282	-212.503	-13.742	-57.6727	-206.558	-6.70971	-27.9578	-238.458	-0.810103	-55.5151	-221.804	-24.2206	-52.2906	-217.636	-10.6569	-17.2877	-246.85	-10.4996	-46.1096	-227.182	-26.5269	-34.1457	-226.077	-13.6975	-10.6978	-261.179	-18.793	-31.5388	-237.009	-28.852	-23.835	-231.438	-10.2288	-9.60296	-255.897	22.0926	-8.43012	-250.904	24.0649	18.7529	-231.139	38.0663	-3.07854	
52	0.433333	-204.495	25.6884	-1.03002	-194.352	24.0051	-21.7289	-186.606	33.7543	-48.4814	-178.422	37.1692	-60.7843	-227.37	11.6193	-60.9987	-216.548	-14.4017	-58.8506	-210.063	-7.04072	-29.4289	-240.962	-3.56687	-58.7887	-224.294	-24.5785	-52.942	-215.223	-11.5007	-22.8491	-252.941	-10.3598	-44.2784	-230.823	-26.0515	-36.0223	-227.569	-11.2592	-11.5559	-261.623	-17.3054	-32.6481	-239.275	-27.07	-24.2618	-233.221	-8.82007	-4.70407	-255.76	22.9292	-10.829	-251.099	27.1635	19.9253	-230.982	38.6481	-6.48005	
53	0.441667	-201.535	25.4269	-1.47192	-193.658	25.7767	-28.4189	-185.866	30.9181	-49.7346	-179.634	32.9097	-62.2129	-227.787	12.5721	-62.6574	-216.843	-14.4839	-59.5948	-208.691	-8.91853	-33.2895	-238.991	-0.497295	-61.3306	-225.984	-25.357	-51.4622	-219.461	-12.3842	-23.1202	-250.087	-8.01384	-49.2025	-235.535	-26.1128	-38.1487	-226.492	-12.5563	-16.4132	-262.121	-12.7882	-35.9027	-241.233	-25.4252	-28.5108	-233.185	-9.97354	-9.98303	-258.924	25.8997	-7.56618	-249.868	29.5285	15.8241	-229.738	39.7679	-8.64082	
54	0.45	-203.757	25.4913	-7.50029	-195.921	21.8917	-27.9375	-187.421	27.0055	-50.5208	-180.698	28.7647	-64.2611	-229.895	11.6317	-64.707	-219.671	-16.6631	-59.0644	-212.544	-9.59544	-33.9766	-246.801	0.342381	-60.4119	-230.276	-24.4032	-52.2854	-221.446	-11.5808	-24.7535	-257.7	-7.47031	-47.8057	-240.034	-26.9243	-36.3204	-231.075	-11.1229	-17.8271	-265.071	-13.2282	-37.4513	-246.427	-25.1735	-29.4058	-238.26	-7.82405	-13.0338	-259.808	27.9726	-11.3586	-250.801	28.3529	15.8139	-229.332	37.8605	-8.8262	
55	0.458333	-206.394	22.2132	-7.78245	-196.128	20.0368	-32.7259	-191.8	22.2912	-52.4492	-177.548	26.0381	-66.9568	-232.807	13.7495	-65.2324	-226.081	-14.9052	-62.1428	-217.343	-9.19551	-34.8634	-247.02	3.50345	-62.9027	-234.295	-24.1043	-55.4802	-228.075	-14.9569	-26.9287	-258.796	-1.1024	-50.7971	-242.909	-25.0829	-37.8823	-234.86	-10.2006	-18.8519	-271.346	-8.5227	-38.707	-252.622	-22.7715	-33.9157	-243.164	-5.84442	-11.3813	-256.58	30.6755	-13.5813	-248.133	33.1913	10.5083	-229.656	40.4952	-7.62584	
56	0.466667	-206.546	22.6028	-11.4986	-196.678	18.6753	-33.988	-189.924	21.3406	-54.9405	-180.165	21.6858	-66.8147	-233.245	12.7923	-69.385	-227.876	-14.1268	-65.4213	-218.479	-10.7678	-38.7733	-250.164	3.37907	-65.3306	-240.869	-23.1141	-54.0241	-232.367	-10.0693	-26.0804	-262.46	0.81528	-51.4058	-247.972	-22.6074	-39.0001	-237.398	-5.49199	-20.4293	-273.776	-0.942306	-39.3526	-258.332	-20.4634	-36.0103	-246.222	-6.17437	-14.1304	-262.472	33.5173	-17.7482	-251.325	35.7888	12.5099	-229.218	39.2957	-13.8634	
57	0.475	-208.759	19.5959	-9.03441	-201.411	15.6202	-32.8546	-197.125	17.7838	-57.7282	-186.943	18.28	-71.2426	-235.03	10.5187	-71.238	-234.709	-14.6152	-64.6958	-223.686	-8.90121	-38.2068	-254.22	5.1745	-65.9772	-247.737	-21.0637	-58.384	-235.027	-7.76981	-27.5664	-264.288	-1.04642	-54.9157	-250.834	-20.6723	-42.4883	-241.418	-7.48646	-22.6433	-277.766	0.44706	-40.7027	-262.128	-19.6773	-32.3171	-248.579	-6.73939	-14.5067	-261.696	34.1162	-16.8277	-247.928	37.937	7.58431	-230.631	40.3179	-12.5705	
58	0.483333	-206.282	17.9271	-11.1468	-203.379	12.9745	-35.3048	-196.207	14.4112	-55.2425	-187.208	15.5665	-73.8898	-237.446	13.8846	-71.2148	-239.025	-13.6455	-67.9715	-228.062	-7.7468	-37.527	-256.471	8.80143	-65.1556	-249.309	-20.4357	-54.6708	-236.514	-7.18685	-28.8109	-268.628	4.71586	-54.2632	-256.604	-18.5295	-41.7014	-244.779	-6.36878	-23.3245	-281.041	3.13764	-41.9044	-266.083	-15.6833	-35.9279	-251.326	-1.69483	-16.0233	-258.218	37.5976	-22.0463	-249.793	38.0468	7.87099	-231.484	40.6936	-15.4408	
59	0.491667	-207.297	15.594	-11.9071	-204.475	10.7903	-36.972	-198.229	11.9848	-57.6841	-191.118	12.611	-76.6926	-238.205	11.0365	-75.4432	-237.636	-15.0462	-67.5759	-232.366	-10.4884	-42.1693	-259.35	8.01009	-67.8203	-253.898	-18.2997	-59.5134	-243.27	-7.12405	-30.0373	-270.917	4.56937	-56.3105	-257.787	-15.6407	-42.9597	-247.626	-0.311827	-20.8622	-282.462	8.90153	-41.6576	-268.171	-12.8509	-32.6786	-255.648	0.00861031	-19.564	-261.784	40.1519	-17.6528	-251.366	40.975	6.356	-227.405	40.5556	-17.5028	
60	0.5	-208.69	14.9745	-13.4532	-206.669	9.89052	-37.5741	-198.449	10.8185	-62.9522	-193.184	10.7433	-77.252	-239.895	16.6075	-72.983	-245.992	-11.9098	-70.5216	-235.858	-6.54965	-39.677	-256.948	11.2092	-70.1751	-258.62	-15.2471	-60.6652	-240.374	-5.21601	-31.6881	-272.983	9.0017	-57.338	-264.732	-13.6012	-42.9762	-250.046	-1.15719	-24.9994	-282.462	11.9384	-44.2568	-273.904	-9.51601	-35.1255	-257.21	0.321209	-17.6884	-259.234	42.4742	-24.2217	-247.998	41.2186	5.69069	-232.409	39.7224	-17.3167	
61	0.508333	-210.07	14.2929	-17.2065	-205.982	7.33136	-40.1862	-199.159	6.5955	-61.4408	-190.665	6.09432	-79.8852	-243.691	18.0581	-74.4796	-250.093	-10.6998	-70.5348	-235.888	-7.58339	-43.1284	-260.155	11.8691	-71.3853	-261.453	-13.6119	-58.2489	-244.827	-3.07811	-33.1359	-276.848	13.2291	-56.7545	-266.787	-10.6235	-45.7183	-254.714	3.29532	-23.4332	-287.798	13.4968	-45.7	-275.102	-6.47438	-36.2601	-258.944	5.7568	-22.0466	-260.843	44.682	-25.7437	-249.357	42.7787	0.664129	-226.114	41.2404	-18.9546	
62	0.516667	-212.071	12.7269	-17.8992	-208.397	7.16761	-44.7202	-203.364	5.24262	-61.8362	-194.685	5.00743	-82.6723	-244.747	16.1235	-78.5258	-251.786	-9.39567	-73.622	-241.015	-3.52096	-43.3689	-261.079	16.2271	-72.5566	-262.163	-12.3794	-61.1986	-250.501	-2.33127	-33.8558	-277.501	14.7562	-59.7315	-269.29	-7.80933	-49.447	-255.28	6.42627	-26.0805	-287.305	19.2143	-47.6195	-278.559	-2.8196	-38.0549	-260.302	8.3731	-20.5172	-255.718	47.5563	-23.5657	-246.073	43.4593	-0.652783	-228.012	40.5032	-21.3753	
63	0.525	-215.022	12.3314	-20.3768	-210.017	5.5651	-44.6088	-205.426	4.74271	-64.9459	-198.316	2.62961	-84.2701	-244.691	17.1695	-79.6435	-254.379	-8.56851	-72.3584	-241.595	-3.15503	-45.2864	-264.053	17.4498	-74.7153	-267.027	-8.60455	-65.4808	-249.825	-1.9277	-38.1955	-276.285	21.1787	-61.4573	-271.19	-4.53351	-49.918	-258.423	6.60535	-28.3569	-285.383	25.7972	-50.1805	-282.046	1.31079	-40.2313	-260.073	11.3314	-26.0437	-254.013	48.4811	-27.5564	-248.714	48.1148	0.660087	-226.457	41.9512	-25.5425	
64	0.533333	-218.404	12.9189	-22.7882	-212.073	1.72634	-44.1249	-204.759	1.96628	-70.73	-202.137	-0.948878	-85.4397	-247.585	15.9073	-82.702	-257.455	-8.5916	-72.7255	-244.264	-5.40575	-48.8676	-262.442	18.8124	-78.1157	-270.282	-7.43194	-63.8415	-253.602	0.67061	-37.7695	-279.996	21.6302	-64.382	-275.834	-2.08724	-51.2649	-257.93	8.89634	-31.0664	-284.876	26.8219	-52.6359	-282.088	4.12414	-42.1508	-265.243	12.2606	-23.9416	-254.456	51.046	-29.9765	-246.561	46.9977	-3.91553	-226.782	38.6517	-26.9678	
65	0.541667	-218.667	11.1358	-24.313	-213.155	2.99858	-50.4531	-209.067	-1.73672	-67.1348	-202.237	-3.91097	-86.0657	-243.45	18.6955	-83.0734	-259.801	-5.83325	-75.0552	-246.565	-1.77322	-47.3358	-262.39	19.6086	-79.6389	-273.832	-4.21903	-64.8782	-259.701	1.10062	-38.6209	-275.489	21.6364	-67.0047	-274.839	0.0571237	-51.1308	-260.356	10.708	-30.8569	-285.589	26.7934	-55.0544	-284.773	7.99287	-41.4955	-261.338	15.0346	-29.1976	-252.763	51.1204	-30.4273	-246.658	51.771	-7.69079	-227.224	41.1872	-26.92	
66	0.55	-217.406	9.24891	-25.9708	-211.875	-0.512237	-47.9221	-208.25	-2.70485	-70.3987	-200.753	-7.85879	-87.056	-242.22	18.3396	-84.1737	-259.572	-5.76775	-78.3989	-247.288	-3.09947	-49.8625	-264.466	21.3704	-80.1228	-272.556	-4.1298	-71.0382	-256.942	3.00653	-39.6371	-276.771	23.9638	-67.327	-279.039	2.03658	-51.3936	-260.797	9.00738	-33.0966	-286.063	33.9139	-55.0645	-283.258	10.5449	-45.4504	-266.39	17.392	-26.7426	-249.617	52.7504	-32.2183	-245.266	50.0544	-9.03439	-224.59	40.4066	-28.0926	
